<svg width="847" height="252" viewBox="0 0 847 252" fill="none" xmlns="http://www.w3.org/2000/svg">
<path d="M804.652 102.42C804.412 108.42 804.292 113.1 804.292 116.46C804.292 125.1 804.712 131.88 805.552 136.8C806.512 141.6 808.012 145.08 810.052 147.24C812.212 149.28 815.152 150.3 818.872 150.3C820.792 150.3 823.072 149.7 825.712 148.5C828.352 147.3 830.752 145.74 832.912 143.82C834.232 142.62 835.552 142.02 836.872 142.02C838.312 142.02 839.452 142.86 840.292 144.54C841.252 146.1 841.732 148.02 841.732 150.3C841.732 152.58 841.252 154.8 840.292 156.96C839.452 159.12 838.132 160.92 836.332 162.36C830.092 167.52 823.012 170.1 815.092 170.1C803.692 170.1 795.352 165.36 790.072 155.88C784.792 146.28 782.152 133.8 782.152 118.44C782.152 113.16 782.332 107.82 782.692 102.42H775.672C772.072 102.42 769.612 101.76 768.292 100.44C767.092 99.12 766.492 97.02 766.492 94.14C766.492 87.42 769.192 84.06 774.592 84.06H784.852C786.892 70.86 790.012 58.8 794.212 47.88C798.412 36.96 803.452 28.26 809.332 21.78C815.332 15.3 821.752 12.06 828.592 12.06C833.632 12.06 837.592 14.28 840.472 18.72C843.352 23.16 844.792 28.74 844.792 35.46C844.792 54.06 836.992 70.26 821.392 84.06H841.552C843.472 84.06 844.852 84.48 845.692 85.32C846.532 86.16 846.952 87.72 846.952 90C846.952 98.28 840.172 102.42 826.612 102.42H804.652ZM823.732 29.34C821.932 29.34 819.892 31.62 817.612 36.18C815.452 40.62 813.352 46.86 811.312 54.9C809.392 62.82 807.772 71.64 806.452 81.36C813.532 75.24 818.812 68.4 822.292 60.84C825.892 53.16 827.692 46.2 827.692 39.96C827.692 32.88 826.372 29.34 823.732 29.34Z" fill="#FF25D4"/>
<path d="M784.461 129.06C786.021 129.06 787.221 129.78 788.061 131.22C789.021 132.66 789.501 134.64 789.501 137.16C789.501 141.96 788.361 145.68 786.081 148.32C780.921 154.68 775.281 159.9 769.161 163.98C763.161 168.06 756.321 170.1 748.641 170.1C738.081 170.1 730.221 165.3 725.061 155.7C720.021 146.1 717.501 133.68 717.501 118.44C717.501 103.8 719.361 87.12 723.081 68.4C726.921 49.68 732.501 33.6 739.821 20.16C747.261 6.72001 756.081 0 766.281 0C772.041 0 776.541 2.7 779.781 8.10001C783.141 13.38 784.821 21 784.821 30.96C784.821 45.24 780.861 61.8 772.941 80.64C765.021 99.48 754.281 118.14 740.721 136.62C741.561 141.54 742.941 145.08 744.861 147.24C746.781 149.28 749.301 150.3 752.421 150.3C757.341 150.3 761.661 148.92 765.381 146.16C769.101 143.28 773.841 138.42 779.601 131.58C781.041 129.9 782.661 129.06 784.461 129.06ZM762.321 17.82C759.561 17.82 756.441 22.8 752.961 32.76C749.481 42.72 746.421 55.08 743.781 69.84C741.141 84.6 739.701 98.76 739.461 112.32C747.981 98.28 754.761 84.24 759.801 70.2C764.841 56.04 767.361 43.14 767.361 31.5C767.361 22.38 765.681 17.82 762.321 17.82Z" fill="#FF25D4"/>
<path d="M651.457 170.1C646.057 170.1 641.617 167.64 638.137 162.72C634.777 157.68 633.097 151.44 633.097 144C633.097 135 633.697 126.78 634.897 119.34C636.097 111.78 638.077 103.8 640.837 95.4C642.037 91.8 643.717 89.22 645.877 87.66C648.037 86.1 651.457 85.32 656.137 85.32C658.777 85.32 660.577 85.74 661.537 86.58C662.617 87.42 663.157 88.68 663.157 90.36C663.157 91.32 662.497 94.56 661.177 100.08C659.977 104.52 659.017 108.54 658.297 112.14C655.897 124.74 654.697 133.14 654.697 137.34C654.697 139.86 654.997 141.66 655.597 142.74C656.197 143.7 657.157 144.18 658.477 144.18C660.277 144.18 662.497 142.38 665.137 138.78C667.897 135.18 670.777 129.72 673.777 122.4C676.897 115.08 679.897 106.08 682.777 95.4C683.737 91.8 685.177 89.22 687.097 87.66C689.137 86.1 692.137 85.32 696.097 85.32C698.857 85.32 700.777 85.68 701.857 86.4C702.937 87 703.477 88.2 703.477 90C703.477 93 701.977 101.22 698.977 114.66C695.617 130.02 693.937 139.5 693.937 143.1C693.937 145.38 694.417 147.18 695.377 148.5C696.337 149.7 697.597 150.3 699.157 150.3C701.557 150.3 704.377 148.86 707.617 145.98C710.977 142.98 715.417 138.18 720.937 131.58C722.377 129.9 723.997 129.06 725.797 129.06C727.357 129.06 728.557 129.78 729.397 131.22C730.357 132.66 730.837 134.64 730.837 137.16C730.837 141.96 729.697 145.68 727.417 148.32C722.257 154.68 716.677 159.9 710.677 163.98C704.797 168.06 698.077 170.1 690.517 170.1C684.757 170.1 680.497 167.88 677.737 163.44C675.097 159 673.777 152.76 673.777 144.72C671.737 152.88 668.677 159.18 664.597 163.62C660.517 167.94 656.137 170.1 651.457 170.1Z" fill="#FF25D4"/>
<path d="M570.686 170.1C563.246 170.1 557.306 167.4 552.866 162C548.426 156.6 546.206 149.52 546.206 140.76C546.206 131.16 548.426 122.1 552.866 113.58C557.306 104.94 563.186 98.04 570.506 92.88C577.946 87.6 585.806 84.96 594.086 84.96C596.726 84.96 598.466 85.5 599.306 86.58C600.266 87.54 601.046 89.34 601.646 91.98C604.166 91.5 606.806 91.26 609.566 91.26C615.446 91.26 618.386 93.36 618.386 97.56C618.386 100.08 617.486 106.08 615.686 115.56C612.926 129.36 611.546 138.96 611.546 144.36C611.546 146.16 611.966 147.6 612.806 148.68C613.766 149.76 614.966 150.3 616.406 150.3C618.686 150.3 621.446 148.86 624.686 145.98C627.926 142.98 632.306 138.18 637.826 131.58C639.266 129.9 640.886 129.06 642.686 129.06C644.246 129.06 645.446 129.78 646.286 131.22C647.246 132.66 647.726 134.64 647.726 137.16C647.726 141.96 646.586 145.68 644.306 148.32C639.386 154.44 634.166 159.6 628.646 163.8C623.126 168 617.786 170.1 612.626 170.1C608.666 170.1 605.006 168.78 601.646 166.14C598.406 163.38 595.946 159.66 594.266 154.98C588.026 165.06 580.166 170.1 570.686 170.1ZM577.166 151.92C579.806 151.92 582.326 150.36 584.726 147.24C587.126 144.12 588.866 139.98 589.946 134.82L596.606 101.7C591.566 101.82 586.886 103.74 582.566 107.46C578.366 111.06 575.006 115.86 572.486 121.86C569.966 127.86 568.706 134.22 568.706 140.94C568.706 144.66 569.426 147.42 570.866 149.22C572.426 151.02 574.526 151.92 577.166 151.92Z" fill="#FF25D4"/>
<path d="M565.348 91.44C568.108 91.44 570.088 92.04 571.288 93.24C572.608 94.44 573.268 96 573.268 97.92C573.268 101.04 572.308 103.8 570.388 106.2C568.588 108.6 565.708 109.86 561.748 109.98C552.148 110.22 543.628 109.5 536.188 107.82C527.668 125.7 517.348 140.58 505.228 152.46C493.228 164.22 481.168 170.1 469.048 170.1C456.568 170.1 447.268 162.84 441.148 148.32C435.028 133.8 431.968 114.18 431.968 89.46C431.968 68.34 433.468 49.38 436.468 32.58C437.548 26.34 439.048 22.14 440.968 19.98C443.008 17.7 446.428 16.56 451.228 16.56C459.148 16.56 463.108 19.98 463.108 26.82C463.108 27.54 462.988 28.86 462.748 30.78C459.148 52.38 457.348 71.94 457.348 89.46C457.348 107.82 458.848 121.8 461.848 131.4C464.968 140.88 469.588 145.62 475.708 145.62C481.948 145.62 488.728 141.3 496.048 132.66C503.368 124.02 510.088 113.16 516.208 100.08C508.888 95.52 503.368 89.64 499.648 82.44C495.928 75.12 494.068 66.72 494.068 57.24C494.068 47.76 495.508 39.78 498.388 33.3C501.388 26.7 505.408 21.78 510.448 18.54C515.608 15.3 521.308 13.68 527.548 13.68C535.228 13.68 541.288 16.44 545.728 21.96C550.288 27.48 552.568 35.04 552.568 44.64C552.568 58.44 549.568 73.5 543.568 89.82C549.928 90.9 557.188 91.44 565.348 91.44ZM512.248 55.98C512.248 67.74 516.028 76.44 523.588 82.08C528.268 68.64 530.608 57.54 530.608 48.78C530.608 43.74 529.948 40.08 528.628 37.8C527.308 35.4 525.508 34.2 523.228 34.2C519.988 34.2 517.348 36.12 515.308 39.96C513.268 43.68 512.248 49.02 512.248 55.98Z" fill="#FF25D4"/>
<path d="M297.302 170.1C292.742 170.1 289.502 167.7 287.582 162.9C285.782 158.1 284.882 150.42 284.882 139.86C284.882 124.26 287.102 109.44 291.542 95.4C292.622 91.92 294.362 89.4 296.762 87.84C299.282 86.16 302.762 85.32 307.202 85.32C309.602 85.32 311.282 85.62 312.242 86.22C313.202 86.82 313.682 87.96 313.682 89.64C313.682 91.56 312.782 95.88 310.982 102.6C309.782 107.4 308.822 111.6 308.102 115.2C307.382 118.68 306.782 123.06 306.302 128.34C309.542 118.98 313.382 111.06 317.822 104.58C322.382 98.1 327.002 93.3 331.682 90.18C336.482 86.94 340.982 85.32 345.182 85.32C349.382 85.32 352.322 86.28 354.002 88.2C355.802 90.12 356.702 93.06 356.702 97.02C356.702 100.86 355.562 107.82 353.282 117.9C352.322 122.22 351.662 125.46 351.302 127.62C357.302 112.86 363.962 102.12 371.282 95.4C378.602 88.68 385.442 85.32 391.802 85.32C399.602 85.32 403.502 89.22 403.502 97.02C403.502 101.7 402.182 110.16 399.542 122.4C397.262 132.84 396.122 139.74 396.122 143.1C396.122 147.9 397.862 150.3 401.342 150.3C403.742 150.3 406.562 148.86 409.802 145.98C413.162 142.98 417.602 138.18 423.122 131.58C424.562 129.9 426.182 129.06 427.982 129.06C429.542 129.06 430.742 129.78 431.582 131.22C432.542 132.66 433.022 134.64 433.022 137.16C433.022 141.96 431.882 145.68 429.602 148.32C424.442 154.68 418.862 159.9 412.862 163.98C406.982 168.06 400.262 170.1 392.702 170.1C386.582 170.1 381.962 168.36 378.842 164.88C375.722 161.28 374.162 156.12 374.162 149.4C374.162 146.04 375.002 140.04 376.682 131.4C378.242 123.84 379.022 118.62 379.022 115.74C379.022 113.82 378.362 112.86 377.042 112.86C375.482 112.86 373.262 114.9 370.382 118.98C367.502 122.94 364.622 128.22 361.742 134.82C358.862 141.42 356.522 148.38 354.722 155.7C353.402 161.46 351.842 165.3 350.042 167.22C348.362 169.14 345.602 170.1 341.762 170.1C337.802 170.1 334.802 168.24 332.762 164.52C330.842 160.68 329.882 156.06 329.882 150.66C329.882 146.1 330.482 139.5 331.682 130.86C332.642 123.18 333.122 118.14 333.122 115.74C333.122 113.82 332.462 112.86 331.142 112.86C329.342 112.86 327.062 115.02 324.302 119.34C321.542 123.66 318.842 129.18 316.202 135.9C313.682 142.62 311.642 149.22 310.082 155.7C308.762 161.34 307.202 165.18 305.402 167.22C303.722 169.14 301.022 170.1 297.302 170.1Z" fill="#FF25D4"/>
<path d="M222.112 170.1C214.672 170.1 208.732 167.4 204.292 162C199.852 156.6 197.632 149.52 197.632 140.76C197.632 131.16 199.852 122.1 204.292 113.58C208.732 104.94 214.612 98.04 221.932 92.88C229.372 87.6 237.232 84.96 245.512 84.96C248.152 84.96 249.892 85.5 250.732 86.58C251.692 87.54 252.472 89.34 253.072 91.98C255.592 91.5 258.232 91.26 260.992 91.26C266.872 91.26 269.812 93.36 269.812 97.56C269.812 100.08 268.912 106.08 267.112 115.56C264.352 129.36 262.972 138.96 262.972 144.36C262.972 146.16 263.392 147.6 264.232 148.68C265.192 149.76 266.392 150.3 267.832 150.3C270.112 150.3 272.872 148.86 276.112 145.98C279.352 142.98 283.732 138.18 289.252 131.58C290.692 129.9 292.312 129.06 294.112 129.06C295.672 129.06 296.872 129.78 297.712 131.22C298.672 132.66 299.152 134.64 299.152 137.16C299.152 141.96 298.012 145.68 295.732 148.32C290.812 154.44 285.592 159.6 280.072 163.8C274.552 168 269.212 170.1 264.052 170.1C260.092 170.1 256.432 168.78 253.072 166.14C249.832 163.38 247.372 159.66 245.692 154.98C239.452 165.06 231.592 170.1 222.112 170.1ZM228.592 151.92C231.232 151.92 233.752 150.36 236.152 147.24C238.552 144.12 240.292 139.98 241.372 134.82L248.032 101.7C242.992 101.82 238.312 103.74 233.992 107.46C229.792 111.06 226.432 115.86 223.912 121.86C221.392 127.86 220.132 134.22 220.132 140.94C220.132 144.66 220.852 147.42 222.292 149.22C223.852 151.02 225.952 151.92 228.592 151.92Z" fill="#FF25D4"/>
<path d="M211.238 129.06C212.798 129.06 213.998 129.78 214.838 131.22C215.798 132.66 216.278 134.64 216.278 137.16C216.278 141.96 215.138 145.68 212.858 148.32C207.698 154.68 202.058 159.9 195.938 163.98C189.938 168.06 183.098 170.1 175.418 170.1C164.858 170.1 156.998 165.3 151.838 155.7C146.798 146.1 144.278 133.68 144.278 118.44C144.278 103.8 146.138 87.12 149.858 68.4C153.698 49.68 159.278 33.6 166.598 20.16C174.038 6.72001 182.858 0 193.058 0C198.818 0 203.318 2.7 206.558 8.10001C209.918 13.38 211.598 21 211.598 30.96C211.598 45.24 207.638 61.8 199.718 80.64C191.798 99.48 181.058 118.14 167.498 136.62C168.338 141.54 169.718 145.08 171.638 147.24C173.558 149.28 176.078 150.3 179.198 150.3C184.118 150.3 188.438 148.92 192.158 146.16C195.878 143.28 200.618 138.42 206.378 131.58C207.818 129.9 209.438 129.06 211.238 129.06ZM189.098 17.82C186.338 17.82 183.218 22.8 179.738 32.76C176.258 42.72 173.198 55.08 170.558 69.84C167.918 84.6 166.478 98.76 166.238 112.32C174.758 98.28 181.538 84.24 186.578 70.2C191.618 56.04 194.138 43.14 194.138 31.5C194.138 22.38 192.458 17.82 189.098 17.82Z" fill="#FF25D4"/>
<path d="M149.04 129.42C150.6 129.42 151.8 130.2 152.64 131.76C153.6 133.2 154.08 135.06 154.08 137.34C154.08 140.1 153.66 142.26 152.82 143.82C151.98 145.38 150.66 146.76 148.86 147.96C141.78 152.64 130.5 160.32 115.02 171C110.34 195.84 104.28 215.4 96.84 229.68C89.4 243.96 79.98 251.1 68.58 251.1C62.46 251.1 57.48 249.18 53.64 245.34C49.8 241.62 47.88 236.7 47.88 230.58C47.88 224.94 49.14 219.24 51.66 213.48C54.18 207.72 58.86 201.06 65.7 193.5C72.66 185.94 82.44 177.3 95.04 167.58L95.58 164.16C86.1 168.12 76.8 170.1 67.68 170.1C54.24 170.1 42.42 167.52 32.22 162.36C22.02 157.08 14.1 149.64 8.46 140.04C2.82 130.44 0 119.28 0 106.56C0 88.8 3.36 73.14 10.08 59.58C16.8 45.9 26.04 35.34 37.8 27.9C49.68 20.34 62.94 16.56 77.58 16.56C91.62 16.56 102.12 19.86 109.08 26.46C116.16 32.94 119.7 41.58 119.7 52.38C119.7 59.46 118.38 65.16 115.74 69.48C113.22 73.68 109.56 75.78 104.76 75.78C101.52 75.78 98.88 75 96.84 73.44C94.92 71.88 93.96 69.72 93.96 66.96C93.96 65.76 94.2 63.72 94.68 60.84C95.4 57.48 95.76 54.84 95.76 52.92C95.76 47.88 94.2 43.98 91.08 41.22C88.08 38.46 82.98 37.08 75.78 37.08C67.02 37.08 58.86 39.6 51.3 44.64C43.86 49.68 37.86 57.24 33.3 67.32C28.74 77.28 26.46 89.28 26.46 103.32C26.46 117.72 30.36 128.88 38.16 136.8C46.08 144.6 57.48 148.5 72.36 148.5C80.64 148.5 89.28 146.64 98.28 142.92L100.8 120.96H82.44C79.08 120.96 76.5 120.18 74.7 118.62C72.9 116.94 72 114.24 72 110.52C72 107.16 72.9 104.52 74.7 102.6C76.5 100.68 78.9 99.72 81.9 99.72H115.56C118.2 99.72 120.36 100.62 122.04 102.42C123.84 104.1 124.56 106.56 124.2 109.8C123.84 113.64 122.64 122.34 120.6 135.9L118.62 149.58C128.22 142.38 136.98 136.14 144.9 130.86C146.46 129.9 147.84 129.42 149.04 129.42ZM70.56 233.64C73.68 233.64 77.1 230.1 80.82 223.02C84.54 215.94 88.02 204.54 91.26 188.82C82.14 196.62 75.54 203.64 71.46 209.88C67.5 216.24 65.52 221.82 65.52 226.62C65.52 231.3 67.2 233.64 70.56 233.64Z" fill="#FF25D4"/>
</svg>
