<svg width="1054" height="273" viewBox="0 0 1054 273" fill="none" xmlns="http://www.w3.org/2000/svg">
<path d="M385.059 12C390.819 12.0002 395.319 14.7003 398.559 20.1001C401.919 25.3801 403.598 33.0001 403.598 42.9599C403.598 57.2399 399.638 73.8 391.718 92.64C383.798 111.48 373.058 130.14 359.498 148.62C360.338 153.54 361.719 157.08 363.639 159.24C365.559 161.28 368.079 162.3 371.199 162.3C376.119 162.3 380.439 160.92 384.159 158.16C385.789 156.898 387.613 155.255 389.635 153.233C389.633 153.076 389.632 152.918 389.632 152.76C389.632 143.16 391.852 134.1 396.291 125.58C400.731 116.94 406.612 110.04 413.932 104.88C421.372 99.5998 429.232 96.9595 437.512 96.9595C440.152 96.9595 441.892 97.5002 442.732 98.5802C443.692 99.5402 444.472 101.34 445.072 103.98C447.592 103.5 450.232 103.26 452.992 103.26C458.872 103.26 461.811 105.36 461.811 109.56C461.811 112.081 460.912 118.081 459.112 127.56C456.352 141.36 454.972 150.96 454.972 156.36C454.972 158.16 455.392 159.6 456.232 160.68C457.192 161.76 458.392 162.3 459.832 162.3C462.112 162.3 464.872 160.86 468.112 157.98C470.452 155.813 473.386 152.707 476.915 148.662C477.198 134.231 479.407 120.478 483.542 107.4C484.622 103.92 486.363 101.4 488.763 99.8398C491.283 98.1599 494.763 97.3198 499.203 97.3198C501.603 97.3198 503.283 97.6198 504.243 98.2198C505.203 98.8198 505.683 99.9604 505.683 101.64C505.683 103.56 504.783 107.88 502.983 114.6C501.783 119.4 500.823 123.6 500.103 127.2C499.383 130.68 498.782 135.06 498.302 140.34C501.542 130.98 505.382 123.06 509.822 116.58C514.382 110.1 519.003 105.3 523.683 102.18C528.483 98.9401 532.983 97.32 537.183 97.32C541.383 97.3201 544.323 98.28 546.003 100.2C547.803 102.12 548.702 105.06 548.702 109.02C548.702 112.86 547.562 119.82 545.282 129.9C544.322 134.22 543.662 137.46 543.302 139.62C549.302 124.86 555.963 114.12 563.282 107.4C570.602 100.68 577.442 97.3202 583.802 97.3201C591.602 97.3201 595.502 101.22 595.502 109.02C595.502 113.7 594.182 122.16 591.542 134.4C589.262 144.84 588.122 151.74 588.122 155.1C588.122 159.9 589.863 162.3 593.343 162.3C595.743 162.3 598.563 160.86 601.802 157.98C605.162 154.98 609.603 150.18 615.123 143.58C616.563 141.9 618.182 141.06 619.982 141.06C621.542 141.06 622.743 141.78 623.583 143.22C624.543 144.66 625.023 146.64 625.023 149.16C625.023 153.96 623.882 157.68 621.602 160.32C616.442 166.68 610.862 171.9 604.863 175.98C598.983 180.06 592.262 182.1 584.702 182.1C578.582 182.1 573.963 180.36 570.843 176.88C567.723 173.28 566.162 168.12 566.162 161.4C566.162 158.04 567.003 152.039 568.683 143.4C570.243 135.84 571.023 130.62 571.023 127.74C571.023 125.82 570.363 124.86 569.043 124.86C567.483 124.86 565.263 126.9 562.383 130.98C559.503 134.94 556.623 140.22 553.743 146.82C550.863 153.42 548.523 160.38 546.723 167.7C545.403 173.46 543.842 177.3 542.042 179.22C540.362 181.14 537.602 182.1 533.762 182.1C529.802 182.1 526.803 180.24 524.763 176.52C522.843 172.68 521.882 168.06 521.882 162.66C521.882 158.1 522.482 151.5 523.682 142.86C524.642 135.18 525.123 130.14 525.123 127.74C525.123 125.82 524.463 124.86 523.143 124.86C521.343 124.86 519.062 127.02 516.302 131.34C513.542 135.66 510.843 141.18 508.203 147.9C505.683 154.62 503.642 161.22 502.082 167.7C500.762 173.34 499.203 177.18 497.403 179.22C495.723 181.14 493.022 182.1 489.302 182.1C484.742 182.1 481.503 179.7 479.583 174.9C479.107 173.631 478.694 172.161 478.344 170.49C476.298 172.403 474.208 174.174 472.071 175.8C466.551 180 461.212 182.1 456.052 182.1C452.092 182.1 448.432 180.78 445.072 178.14C441.832 175.38 439.372 171.66 437.692 166.98C431.452 177.06 423.592 182.1 414.112 182.1C406.672 182.1 400.732 179.4 396.292 174C395.561 173.11 394.891 172.175 394.28 171.195C392.226 172.933 390.114 174.53 387.939 175.98C381.939 180.06 375.098 182.1 367.418 182.1C356.859 182.1 348.998 177.3 343.838 167.7C342.604 165.349 341.522 162.828 340.589 160.139C333.494 164.835 322.304 172.455 307.02 183C302.34 207.84 296.28 227.4 288.84 241.68C281.4 255.96 271.98 263.1 260.58 263.1C254.46 263.1 249.48 261.18 245.64 257.341C241.8 253.621 239.88 248.7 239.88 242.58C239.881 236.94 241.14 231.239 243.66 225.48C246.18 219.72 250.86 213.06 257.7 205.5C264.66 197.94 274.44 189.3 287.04 179.58L287.58 176.16C278.1 180.12 268.8 182.1 259.68 182.1C246.24 182.1 234.42 179.52 224.221 174.36C214.021 169.08 206.101 161.64 200.461 152.04C194.821 142.44 192 131.28 192 118.56C192 100.8 195.36 85.1401 202.08 71.5802C208.8 57.9002 218.04 47.3403 229.8 39.9003C241.68 32.3404 254.94 28.5601 269.58 28.56C283.62 28.56 294.12 31.8604 301.08 38.4604C308.16 44.9403 311.7 53.5802 311.7 64.38C311.7 71.4598 310.38 77.1598 307.74 81.4797C305.22 85.6797 301.56 87.78 296.76 87.78C293.52 87.78 290.88 86.9997 288.84 85.4397C286.92 83.8798 285.961 81.72 285.961 78.9603C285.961 77.7603 286.2 75.7201 286.68 72.8401C287.4 69.4801 287.76 66.8398 287.76 64.9198C287.76 59.8799 286.2 55.98 283.08 53.22C280.08 50.4602 274.98 49.0801 267.78 49.0801C259.02 49.0801 250.86 51.6005 243.3 56.6405C235.86 61.6805 229.86 69.24 225.3 79.32C220.74 89.28 218.46 101.28 218.46 115.32C218.46 129.72 222.36 140.88 230.16 148.8C238.08 156.6 249.481 160.5 264.361 160.5C272.64 160.5 281.28 158.64 290.28 154.92L292.8 132.96L274.44 132.96C271.08 132.96 268.5 132.18 266.7 130.62C264.9 128.94 264 126.24 264 122.52C264 119.16 264.9 116.52 266.7 114.6C268.5 112.68 270.9 111.721 273.9 111.72L307.56 111.72C310.2 111.72 312.36 112.62 314.04 114.42C315.84 116.1 316.56 118.56 316.2 121.8C315.84 125.64 314.64 134.34 312.6 147.9L310.621 161.58C320.22 154.38 328.98 148.14 336.9 142.86L336.902 142.858C336.488 138.951 336.279 134.812 336.279 130.44C336.279 115.8 338.138 99.1201 341.858 80.4002C345.698 61.6804 351.278 45.6001 358.598 32.1601C366.038 18.7201 374.859 12 385.059 12ZM283.26 200.82C274.14 208.62 267.54 215.64 263.46 221.88C259.5 228.24 257.52 233.82 257.52 238.62C257.52 243.3 259.2 245.64 262.56 245.64C265.68 245.64 269.1 242.1 272.82 235.02C276.54 227.94 280.02 216.54 283.26 200.82ZM126.217 35.7809C126.932 35.8069 127.644 35.8459 128.352 35.8974C129.768 36.0006 131.169 36.1544 132.554 36.3569C132.785 36.3906 133.015 36.4257 133.244 36.4621C133.704 36.535 134.162 36.6131 134.618 36.6967C134.846 36.7385 135.073 36.7816 135.3 36.8261C135.981 36.9593 136.657 37.1046 137.328 37.2614C137.776 37.3659 138.222 37.4756 138.665 37.5904C143.763 38.9108 148.572 40.9055 152.98 43.4686C153.171 43.58 153.362 43.6926 153.552 43.8062C154.313 44.2604 155.061 44.7315 155.796 45.2193C155.98 45.3413 156.163 45.4643 156.345 45.5883C157.985 46.7044 159.559 47.9037 161.061 49.1789C161.561 49.6041 162.054 50.0374 162.539 50.4793C162.861 50.7737 163.18 51.0719 163.495 51.3736C164.126 51.9772 164.742 52.5954 165.342 53.2273C165.642 53.5433 165.938 53.8627 166.231 54.1856C166.815 54.8311 167.383 55.4903 167.935 56.1623C168.211 56.4985 168.483 56.8381 168.751 57.1807C169.687 58.3791 170.573 59.6164 171.403 60.8898C171.522 61.0719 171.64 61.2549 171.756 61.4385C176.88 69.5079 179.831 78.981 179.831 89.1132C179.831 89.3552 179.828 89.5968 179.825 89.838C179.803 91.424 179.708 92.9933 179.544 94.543C179.489 95.0665 179.426 95.5878 179.355 96.1067C179.315 96.4001 179.273 96.6927 179.227 96.9846C179.17 97.3577 179.108 97.7294 179.042 98.0999C178.988 98.4049 178.933 98.7093 178.873 99.0125C178.558 100.623 178.166 102.207 177.703 103.763C177.607 104.084 177.507 104.404 177.405 104.724C177.164 105.482 176.905 106.233 176.629 106.976C176.547 107.197 176.464 107.418 176.379 107.638C176.272 107.916 176.161 108.192 176.049 108.468C175.688 109.357 175.302 110.234 174.892 111.099C174.702 111.501 174.507 111.902 174.306 112.299C174.198 112.513 174.088 112.726 173.977 112.939C173.834 113.212 173.689 113.484 173.542 113.754C173.18 114.419 172.805 115.075 172.415 115.722C172.247 116.002 172.075 116.28 171.901 116.556C171.822 116.682 171.744 116.809 171.663 116.934C170.157 119.29 168.464 121.524 166.606 123.62C166.306 123.958 166.003 124.292 165.695 124.622C165.559 124.768 165.423 124.913 165.286 125.057C165.092 125.261 164.896 125.463 164.698 125.664C164.158 126.214 163.606 126.753 163.042 127.281C162.826 127.483 162.609 127.683 162.39 127.882C162.23 128.026 162.07 128.171 161.909 128.313L96.5318 200.317C94.5478 202.502 91.1129 202.502 89.1288 200.317L75.3963 185.193L26.9747 232.86C25.7327 234.083 23.9745 234.582 22.3279 234.302C22.1784 234.276 22.0299 234.244 21.8827 234.206C21.7352 234.167 21.589 234.123 21.4447 234.071C21.3008 234.02 21.1586 233.962 21.0189 233.898C20.739 233.769 20.4688 233.614 20.2114 233.432L14.7611 229.591C14.6964 229.546 14.6333 229.499 14.5715 229.451C14.4476 229.354 14.3296 229.253 14.2176 229.148C14.1057 229.043 13.9995 228.934 13.8998 228.82C13.7004 228.594 13.5254 228.352 13.3758 228.099C13.2636 227.909 13.1662 227.712 13.0827 227.51C13.027 227.375 12.9775 227.239 12.9348 227.1C12.8281 226.754 12.7627 226.397 12.7394 226.035C12.7301 225.891 12.7268 225.745 12.7312 225.6C12.7355 225.455 12.7468 225.309 12.765 225.163C12.7832 225.018 12.8086 224.873 12.8408 224.728C12.9535 224.223 13.1526 223.725 13.4423 223.255L52.4857 159.958L23.7533 128.313C23.3296 127.938 22.9128 127.556 22.5014 127.169C22.2812 126.962 22.0627 126.753 21.8461 126.542C21.4651 126.172 21.0893 125.796 20.7197 125.415C20.3286 125.012 19.9447 124.603 19.5666 124.188C19.2467 123.837 18.931 123.483 18.6207 123.124C18.2656 122.713 17.9161 122.298 17.5737 121.878C17.4592 121.737 17.3459 121.595 17.2328 121.453C17.1097 121.299 16.9874 121.144 16.866 120.988C16.4817 120.495 16.1066 119.995 15.7399 119.489C15.4071 119.03 15.0815 118.565 14.7635 118.096C14.525 117.743 14.2901 117.388 14.0601 117.03C13.8691 116.733 13.6813 116.434 13.4963 116.133C13.1923 115.639 12.8962 115.139 12.6086 114.635C12.3873 114.246 12.1712 113.855 11.9597 113.461C11.7741 113.115 11.5926 112.767 11.4148 112.417C10.5393 110.693 9.75651 108.919 9.07555 107.097C9.03705 106.995 9.00013 106.891 8.96227 106.788C8.45554 105.406 8.00601 103.998 7.61757 102.566C7.56124 102.359 7.50651 102.151 7.45273 101.942C7.34943 101.541 7.25156 101.139 7.15777 100.735C6.93284 99.7654 6.73458 98.7865 6.56556 97.7982C6.28008 96.1289 6.07509 94.4337 5.95544 92.7162C5.93884 92.4779 5.9234 92.2393 5.91008 92.0003C5.85683 91.0443 5.83014 90.0816 5.83014 89.1129C5.83014 88.6525 5.83582 88.1934 5.84794 87.7357C5.91458 85.218 6.16374 82.7437 6.58263 80.3242C6.62076 80.104 6.66047 79.8842 6.70141 79.6649C6.94671 78.3508 7.24193 77.0533 7.58577 75.7744C7.75767 75.1351 7.94212 74.5005 8.1379 73.8707C8.39901 73.0307 8.68068 72.1993 8.98325 71.3772C9.05884 71.1718 9.13569 70.967 9.21382 70.7628C9.44848 70.1495 9.69449 69.5413 9.95175 68.9388C10.0375 68.7379 10.1249 68.5378 10.2131 68.3382C10.8304 66.9415 11.5081 65.5753 12.243 64.2425C12.348 64.0521 12.4537 63.8621 12.5609 63.6731C13.3123 62.3496 14.1207 61.06 14.9825 59.807C15.3518 59.2701 15.731 58.74 16.1197 58.2169C16.638 57.5195 17.1728 56.8342 17.7246 56.1622C18.2766 55.4901 18.8451 54.831 19.4294 54.1854C19.7216 53.8626 20.0179 53.5434 20.3179 53.2275C20.9181 52.5956 21.5341 51.9776 22.165 51.3739C22.4804 51.072 22.7996 50.7736 23.1226 50.479C23.9296 49.7427 24.7598 49.0294 25.6118 48.34C26.2933 47.7885 26.9886 47.2522 27.6975 46.7321C28.9386 45.8215 30.2208 44.9598 31.541 44.1498C31.9181 43.9184 32.2984 43.6913 32.6816 43.4685C34.7895 42.2428 36.9888 41.1466 39.2678 40.1924C39.475 40.1057 39.6829 40.0201 39.8914 39.9357C42.1849 39.0074 44.5569 38.2219 46.9951 37.5904C47.217 37.533 47.4395 37.4771 47.6625 37.4222C52.1172 36.3254 56.7874 35.7416 61.5998 35.7416C65.1716 35.7416 68.6649 36.0638 72.05 36.6781C72.6353 36.7843 73.2172 36.8999 73.7959 37.0235C74.7416 37.2254 75.6783 37.4498 76.6051 37.6971L77.4975 37.9423C81.9428 39.2053 86.1561 40.9847 90.0617 43.2072C90.7042 43.5728 91.4029 43.8012 92.1152 43.8926C93.0649 44.0144 94.0391 43.8927 94.9392 43.527C95.1641 43.4357 95.3842 43.3289 95.5982 43.2071C98.202 41.7254 100.943 40.4407 103.798 39.3747C104.654 39.0548 105.521 38.7545 106.397 38.4746C106.981 38.288 107.57 38.1106 108.163 37.9422C108.755 37.7737 109.352 37.6142 109.953 37.4643C110.554 37.3144 111.159 37.1741 111.768 37.043C115.114 36.3223 118.575 35.8897 122.119 35.7736C122.441 35.763 122.764 35.7551 123.088 35.7498C123.412 35.7445 123.736 35.7417 124.061 35.7417C124.783 35.7417 125.502 35.7549 126.217 35.7809ZM958.281 12.0003C964.041 12.0003 968.541 14.7004 971.781 20.1004C975.141 25.3804 976.821 33.0004 976.821 42.9602C976.821 57.2401 972.862 73.8004 964.942 92.6403C964.383 93.9694 963.807 95.2964 963.221 96.6237C964.194 96.2493 965.317 96.0603 966.592 96.0603L976.852 96.06C978.892 82.8601 982.012 70.8002 986.212 59.8802C990.412 48.9602 995.453 40.2597 1001.33 33.7797C1007.33 27.3001 1013.75 24.0604 1020.59 24.0602C1025.63 24.0602 1029.59 26.2801 1032.47 30.7201C1035.35 35.1601 1036.79 40.7401 1036.79 47.4601C1036.79 66.0601 1028.99 82.2599 1013.39 96.0598L1033.55 96.0603C1035.47 96.0603 1036.85 96.4799 1037.69 97.3198C1038.53 98.1598 1038.95 99.7204 1038.95 102C1038.95 110.28 1032.17 114.42 1018.61 114.42L996.652 114.42C996.412 120.42 996.292 125.1 996.292 128.46C996.292 137.1 996.712 143.88 997.552 148.8C998.512 153.6 1000.01 157.08 1002.05 159.24C1004.21 161.28 1007.15 162.3 1010.87 162.3C1012.79 162.3 1015.07 161.7 1017.71 160.5C1020.35 159.3 1022.75 157.74 1024.91 155.82C1026.23 154.62 1027.55 154.02 1028.87 154.02C1030.31 154.02 1031.45 154.86 1032.29 156.54C1033.25 158.1 1033.73 160.02 1033.73 162.3C1033.73 164.58 1033.25 166.8 1032.29 168.96C1031.45 171.12 1030.13 172.92 1028.33 174.36C1022.09 179.52 1015.01 182.1 1007.09 182.1C995.692 182.1 987.352 177.36 982.072 167.88C980.701 165.386 979.509 162.697 978.493 159.814C978.36 159.987 978.223 160.155 978.081 160.32C972.921 166.68 967.281 171.9 961.161 175.98C955.161 180.06 948.321 182.1 940.641 182.1C930.081 182.099 922.221 177.299 917.062 167.7C916.554 166.733 916.073 165.737 915.616 164.713C911.545 169.125 907.233 172.882 902.677 175.98C896.797 180.06 890.076 182.1 882.516 182.1C876.757 182.1 872.497 179.88 869.737 175.44C867.097 171.001 865.777 164.76 865.777 156.72C863.737 164.88 860.677 171.18 856.597 175.62C852.517 179.94 848.137 182.1 843.457 182.1C838.057 182.1 833.617 179.64 830.137 174.72C829.131 173.212 828.277 171.596 827.573 169.873C825.318 172.024 823.01 174.001 820.646 175.8C815.126 180 809.786 182.1 804.626 182.1C800.666 182.1 797.006 180.78 793.646 178.14C790.406 175.38 787.946 171.66 786.266 166.98C780.026 177.06 772.166 182.1 762.686 182.1C755.246 182.1 749.306 179.399 744.866 174C740.426 168.6 738.206 161.52 738.206 152.76C738.206 143.16 740.426 134.1 744.866 125.58C745.501 124.345 746.166 123.146 746.859 121.982C740.021 121.807 733.798 121.087 728.188 119.82C719.668 137.7 709.348 152.58 697.228 164.46C685.228 176.22 673.168 182.1 661.048 182.1C648.568 182.1 639.268 174.84 633.148 160.32C627.028 145.8 623.968 126.18 623.968 101.46C623.968 80.3399 625.468 61.3801 628.468 44.5802C629.548 38.3402 631.048 34.1395 632.968 31.9795C635.008 29.6997 638.428 28.5601 643.228 28.5601C651.148 28.5603 655.108 31.98 655.108 38.8199C655.108 39.5399 654.988 40.8604 654.748 42.7804C651.148 64.3801 649.348 83.9399 649.348 101.46C649.348 119.82 650.848 133.8 653.848 143.4C656.968 152.88 661.588 157.62 667.708 157.62C673.948 157.62 680.727 153.3 688.047 144.66C695.367 136.02 702.087 125.16 708.207 112.08C700.888 107.52 695.368 101.639 691.648 94.4395C687.928 87.1196 686.068 78.72 686.068 69.2402C686.068 59.7603 687.508 51.7801 690.388 45.3002C693.388 38.7002 697.408 33.7802 702.448 30.5402C707.608 27.3003 713.308 25.6799 719.548 25.6799C727.228 25.68 733.288 28.4401 737.728 33.9601C742.288 39.48 744.568 47.0405 744.568 56.6403C744.568 70.4401 741.567 85.4998 735.568 101.82C741.927 102.9 749.188 103.44 757.348 103.44C759.696 103.44 761.479 103.876 762.698 104.745C770.081 99.555 777.877 96.9596 786.086 96.9596C788.726 96.9596 790.466 97.5003 791.306 98.5802C792.266 99.5402 793.046 101.34 793.646 103.98C796.166 103.5 798.806 103.26 801.566 103.26C807.446 103.261 810.386 105.36 810.386 109.56C810.386 112.081 809.486 118.081 807.686 127.56C804.926 141.36 803.546 150.96 803.546 156.36C803.546 158.16 803.966 159.6 804.806 160.68C805.765 161.76 806.966 162.3 808.405 162.3C810.685 162.3 813.446 160.86 816.686 157.98C818.968 155.867 821.814 152.861 825.226 148.964C825.461 142.67 826.017 136.795 826.897 131.34C828.097 123.78 830.076 115.8 832.836 107.4C834.036 103.8 835.717 101.22 837.877 99.6603C840.037 98.1004 843.457 97.3197 848.137 97.3197C850.777 97.3197 852.577 97.7402 853.537 98.5802C854.617 99.4201 855.157 100.68 855.157 102.36C855.157 103.32 854.497 106.56 853.177 112.08C851.977 116.52 851.017 120.54 850.297 124.14C847.897 136.74 846.697 145.14 846.697 149.34C846.697 151.86 846.997 153.66 847.597 154.74C848.197 155.7 849.157 156.18 850.477 156.18C852.277 156.18 854.497 154.38 857.137 150.78C859.897 147.18 862.777 141.72 865.776 134.4C868.896 127.08 871.897 118.08 874.777 107.4C875.737 103.8 877.177 101.22 879.097 99.6603C881.137 98.1003 884.137 97.3197 888.097 97.3197C890.857 97.3197 892.777 97.6803 893.857 98.4003C894.937 99.0003 895.477 100.2 895.477 102C895.477 105 893.977 113.22 890.977 126.66C887.617 142.02 885.936 151.5 885.936 155.1C885.936 157.38 886.417 159.18 887.377 160.5C888.337 161.7 889.597 162.3 891.157 162.3C893.557 162.3 896.377 160.86 899.617 157.98C902.481 155.423 906.129 151.557 910.562 146.384C909.855 141.465 909.501 136.151 909.501 130.44C909.501 115.8 911.362 99.1196 915.082 80.3996C918.922 61.6799 924.501 45.6003 931.821 32.1605C939.261 18.7205 948.081 12.0003 958.281 12.0003ZM440.031 113.7C434.992 113.82 430.312 115.74 425.992 119.46C421.792 123.06 418.432 127.86 415.912 133.86C413.392 139.86 412.131 146.22 412.131 152.94C412.131 156.66 412.852 159.42 414.292 161.22C415.852 163.02 417.952 163.92 420.592 163.92C423.232 163.919 425.752 162.36 428.152 159.24C430.552 156.12 432.292 151.98 433.372 146.82L440.031 113.7ZM788.606 113.7C783.566 113.82 778.886 115.74 774.566 119.46C770.366 123.06 767.005 127.86 764.486 133.86C761.966 139.86 760.706 146.22 760.706 152.94C760.706 156.66 761.426 159.42 762.866 161.22C764.426 163.02 766.526 163.92 769.166 163.92C771.806 163.92 774.326 162.36 776.726 159.24C779.126 156.12 780.866 151.98 781.946 146.82L788.606 113.7ZM958.499 106.681C951.496 120.762 942.905 134.742 932.721 148.62C933.561 153.54 934.941 157.08 936.861 159.24C938.781 161.28 941.301 162.3 944.421 162.3C949.341 162.3 953.661 160.92 957.381 158.16C961.101 155.28 965.842 150.419 971.602 143.58C972.539 142.486 973.553 141.751 974.643 141.369C974.316 137.904 974.153 134.261 974.153 130.44C974.153 125.16 974.332 119.82 974.692 114.42L967.673 114.42C964.073 114.42 961.612 113.76 960.292 112.44C959.168 111.204 958.57 109.284 958.499 106.681ZM381.099 29.82C378.339 29.82 375.219 34.8002 371.739 44.7602C368.259 54.7202 365.198 67.0804 362.558 81.8403C359.918 96.6002 358.479 110.76 358.239 124.32C366.759 110.28 373.539 96.2403 378.579 82.2004C383.619 68.0406 386.139 55.1402 386.139 43.5003C386.139 34.3804 384.459 29.8201 381.099 29.82ZM954.321 29.8202C951.561 29.8206 948.441 34.8001 944.961 44.7595C941.481 54.7194 938.421 67.0798 935.781 81.8397C933.141 96.5997 931.701 110.76 931.461 124.32C939.981 110.28 946.761 96.2397 951.801 82.1997C956.841 68.0398 959.361 55.1396 959.361 43.4996C959.361 34.3799 957.681 29.8202 954.321 29.8202ZM715.228 46.1998C711.988 46.1999 709.348 48.1202 707.308 51.9602C705.268 55.6802 704.248 61.0204 704.248 67.9803C704.248 79.7401 708.028 88.4405 715.588 94.0805C720.268 80.6405 722.608 69.5398 722.608 60.7798C722.608 55.7399 721.948 52.0797 720.628 49.7997C719.308 47.3998 717.508 46.1998 715.228 46.1998ZM1015.73 41.3396C1013.93 41.3399 1011.89 43.6203 1009.61 48.18C1007.45 52.62 1005.35 58.8602 1003.31 66.9002C1001.39 74.8201 999.772 83.6402 998.452 93.36C1005.53 87.24 1010.81 80.3998 1014.29 72.8398C1017.89 65.1598 1019.69 58.1999 1019.69 51.9599C1019.69 44.8799 1018.37 41.3396 1015.73 41.3396Z" fill="#FF25D4"/>
<path fill-rule="evenodd" clip-rule="evenodd" d="M64.5631 140.511C66.1672 138.058 69.6273 137.415 72.0272 139.124L96.7089 156.705C99.1444 158.439 99.4098 161.825 97.2769 163.947L83.9253 177.229C82.0209 179.123 78.9069 179.286 76.8515 177.597L56.3514 160.761C54.4654 159.213 54.0595 156.578 55.3932 154.538L64.5631 140.511ZM82.2555 107.381C93.7727 89.9494 102.569 75.9401 119.67 86.0488C136.771 96.1575 144.008 113.438 132.491 130.869C120.974 148.301 107.239 155.319 90.1383 145.21C73.0374 135.102 70.7384 124.813 82.2555 107.381Z" fill="white"/>
</svg>
