<svg width="181" height="209" viewBox="0 0 181 209" fill="none" xmlns="http://www.w3.org/2000/svg">
<path d="M123.308 4.09592C154.108 4.0961 179.076 27.9909 179.077 57.4663C179.077 72.9646 172.174 86.921 161.15 96.6712L95.7789 168.67C93.7948 170.855 90.359 170.856 88.3749 168.67L74.6434 153.546L26.2208 201.214C24.4144 202.993 21.5165 203.238 19.4575 201.786L14.0081 197.945C11.9318 196.482 11.3648 193.757 12.6894 191.609L51.7318 128.311L23.0051 96.6713C11.9808 86.9211 5.07727 72.9655 5.07719 57.4671C5.07719 27.9913 30.0463 4.09576 60.8468 4.09576C71.2442 4.09589 80.9767 6.81973 89.3087 11.5614C91.022 12.5363 93.1321 12.5362 94.8453 11.5612C103.177 6.81958 112.91 4.09597 123.308 4.09592Z" fill="#FF25D4"/>
<path d="M63.8102 108.865C65.4145 106.411 68.8746 105.769 71.2743 107.478L95.9561 125.058C98.3916 126.793 98.657 130.178 96.524 132.3L83.1724 145.582C81.2682 147.477 78.1541 147.64 76.0986 145.952L55.5975 129.115C53.7119 127.566 53.3069 124.932 54.6403 122.892L63.8102 108.865ZM81.5026 75.7345C93.0198 58.3029 101.816 44.2935 118.917 54.4022C136.018 64.511 143.254 81.791 131.737 99.2226C120.22 116.654 106.485 123.673 89.3845 113.564C72.2839 103.455 69.9855 93.166 81.5026 75.7345Z" fill="white"/>
</svg>
