<svg width="314" height="235" viewBox="0 0 314 235" fill="none" xmlns="http://www.w3.org/2000/svg">
<g clip-path="url(#clip0_54_524)">
<path d="M229.282 223.286H223.034L220.061 199.155H229.282V223.286Z" fill="#9E616A"/>
<path d="M232.579 234.125H228.099L227.299 229.889L225.251 234.125H213.367C212.798 234.125 212.243 233.943 211.784 233.605C211.325 233.267 210.986 232.791 210.817 232.246C210.647 231.702 210.656 231.117 210.842 230.578C211.028 230.039 211.381 229.573 211.849 229.249L221.339 222.686V218.404L231.32 219.001L232.579 234.125Z" fill="#2F2E41"/>
<path d="M266.399 215.39L261.386 219.123L244.62 201.536L252.02 196.026L266.399 215.39Z" fill="#9E616A"/>
<path d="M275.505 222.118L271.91 224.795L268.744 221.874L269.624 226.497L260.089 233.597C259.632 233.938 259.078 234.123 258.508 234.126C257.939 234.129 257.383 233.949 256.922 233.614C256.462 233.278 256.121 232.804 255.948 232.26C255.776 231.716 255.782 231.132 255.965 230.592L259.669 219.655L257.117 216.219L265.482 210.733L275.505 222.118Z" fill="#2F2E41"/>
<path d="M236.556 98.7838C236.556 98.7838 248.41 109.039 242.941 138.274L236.263 166.919L258.04 203.095L251.096 211.553L222.787 172.397L212.528 148.302L209.649 105.416L236.556 98.7838Z" fill="#2F2E41"/>
<path d="M218.182 155.168L217.469 166.225L219.651 213.343L229.919 211.553L231.881 178.005L218.182 155.168Z" fill="#2F2E41"/>
<path d="M86.4236 228.959L92.0109 228.959L94.6686 207.379L86.4229 207.38L86.4236 228.959Z" fill="#FFB6B6"/>
<path d="M84.998 227.132L86.5707 227.132L92.7105 224.632L96.0012 227.132H96.0017C97.8613 227.132 99.6448 227.872 100.96 229.189C102.275 230.505 103.014 232.291 103.014 234.153V234.382L84.9984 234.382L84.998 227.132Z" fill="#2F2E41"/>
<path d="M108.075 225.434L113.525 226.666L120.865 206.202L112.821 204.384L108.075 225.434Z" fill="#FFB6B6"/>
<path d="M107.087 223.337L108.621 223.684L115.16 222.6L117.82 225.764L117.82 225.764C119.634 226.174 121.211 227.289 122.204 228.864C123.197 230.438 123.525 232.343 123.115 234.16L123.065 234.382L105.492 230.409L107.087 223.337Z" fill="#2F2E41"/>
<path d="M79.3471 97.0329C76.7276 104.944 77.0045 113.531 79.9768 122.748L81.2473 174.639C81.2473 174.639 79.3543 208.669 85.4628 220.643H94.3219L98.7082 171.532L99.259 138.568L118.252 166.378L106.155 219.84L117.058 220.816L136.689 162.797L112.469 106.509L79.3471 97.0329Z" fill="#2F2E41"/>
<path d="M181.512 74.4989C188.288 68.3845 198.367 65.31 206.822 68.7386C198.149 73.5599 191.459 81.2976 187.936 90.5825C186.59 94.1683 185.466 98.2968 182.155 100.217C180.095 101.411 177.533 101.469 175.223 100.893C172.913 100.316 170.796 99.1601 168.708 98.0157L168.114 98.0022C170.781 89.2676 174.736 80.6133 181.512 74.4989Z" fill="#E6E6E6"/>
<path d="M206.775 68.9243C199.287 69.8932 192.294 73.2 186.79 78.375C185.586 79.4679 184.56 80.7442 183.753 82.1569C183.01 83.5584 182.656 85.1334 182.727 86.7184C182.764 88.1975 182.972 89.7062 182.649 91.1684C182.473 91.9145 182.141 92.6147 181.675 93.2233C181.209 93.8318 180.62 94.3349 179.947 94.6996C178.292 95.6519 176.395 95.9521 174.529 96.1812C172.457 96.4354 170.301 96.6667 168.508 97.8303C168.29 97.9713 168.085 97.6254 168.302 97.4846C171.422 95.4602 175.37 96.1968 178.725 94.8457C180.29 94.2152 181.676 93.1086 182.166 91.4354C182.595 89.9722 182.381 88.4162 182.331 86.9189C182.239 85.3738 182.526 83.8296 183.168 82.4213C183.901 80.9721 184.875 79.6584 186.049 78.5365C188.65 75.9684 191.639 73.826 194.905 72.1876C198.623 70.2971 202.636 69.0572 206.771 68.5217C207.027 68.4886 207.029 68.8915 206.775 68.9243Z" fill="white"/>
<path d="M188.464 76.6042C187.723 75.5616 187.375 74.289 187.484 73.0136C187.593 71.7381 188.151 70.543 189.058 69.6415C189.243 69.4598 189.533 69.738 189.349 69.92C188.502 70.7579 187.982 71.8712 187.884 73.0591C187.785 74.247 188.113 75.4311 188.809 76.3978C188.961 76.6081 188.615 76.8132 188.464 76.6042Z" fill="white"/>
<path d="M182.61 85.9708C185.183 86.4273 187.833 85.8959 190.033 84.4826C190.25 84.3424 190.456 84.6882 190.239 84.8282C187.947 86.2947 185.188 86.8421 182.511 86.3612C182.256 86.3151 182.356 85.9251 182.61 85.9708Z" fill="white"/>
<path d="M198.655 70.8298C198.858 71.2931 199.173 71.6986 199.571 72.01C199.97 72.3213 200.439 72.5288 200.937 72.6137C201.193 72.6564 201.093 73.0465 200.839 73.004C200.289 72.9077 199.771 72.6779 199.33 72.3349C198.889 71.9919 198.539 71.546 198.31 71.0362C198.285 70.99 198.278 70.9357 198.29 70.8844C198.303 70.8332 198.335 70.7888 198.38 70.7602C198.426 70.7331 198.48 70.7252 198.532 70.7383C198.583 70.7513 198.628 70.7842 198.655 70.8298Z" fill="white"/>
<path d="M216.131 98.2252C215.971 98.2031 215.81 98.1809 215.648 98.1612C213.491 97.8746 211.314 97.7639 209.139 97.8302C208.971 97.8326 208.801 97.8376 208.633 97.8449C203.395 98.0606 198.242 99.2483 193.437 101.347C191.526 102.185 189.681 103.166 187.918 104.283C185.484 105.827 182.967 107.694 180.246 108.323C179.963 108.392 179.676 108.443 179.386 108.477L168.144 98.729C168.129 98.694 168.113 98.6614 168.098 98.6263L167.631 98.2577C167.718 98.1937 167.81 98.1292 167.897 98.0652C167.947 98.0279 168 97.9928 168.05 97.9554C168.084 97.9312 168.119 97.9071 168.148 97.8833C168.16 97.8752 168.171 97.8672 168.18 97.8617C168.21 97.8379 168.24 97.8189 168.267 97.7977C168.777 97.4358 169.291 97.0769 169.809 96.7209C169.811 96.7183 169.811 96.7183 169.815 96.7179C173.731 93.9676 177.958 91.6921 182.409 89.9391C182.543 89.8886 182.678 89.8354 182.817 89.7894C184.822 89.0431 186.884 88.4621 188.983 88.0522C190.133 87.8314 191.293 87.6691 192.459 87.5659C195.474 87.3049 198.511 87.5203 201.458 88.2042C207.334 89.5685 212.708 92.7993 215.892 97.8379C215.973 97.9668 216.052 98.0937 216.131 98.2252Z" fill="#E6E6E6"/>
<path d="M215.983 98.3462C209.422 94.6056 201.85 93.0303 194.344 93.8439C192.725 93.9903 191.139 94.3914 189.645 95.0323C188.209 95.7038 186.98 96.7479 186.083 98.0562C185.223 99.2592 184.483 100.59 183.345 101.562C182.756 102.052 182.07 102.411 181.332 102.616C180.594 102.821 179.822 102.867 179.065 102.753C177.171 102.515 175.475 101.611 173.848 100.669C172.041 99.6231 170.18 98.5079 168.049 98.3558C167.791 98.3374 167.834 97.9372 168.092 97.9556C171.8 98.2203 174.51 101.189 178.001 102.132C179.63 102.573 181.401 102.524 182.799 101.484C184.021 100.574 184.786 99.2031 185.646 97.9774C186.502 96.6883 187.66 95.6286 189.019 94.8908C190.476 94.1758 192.043 93.7142 193.655 93.5259C197.276 93.044 200.951 93.1352 204.544 93.7962C208.649 94.5278 212.598 95.9572 216.222 98.0225C216.446 98.1505 216.205 98.4733 215.983 98.3462Z" fill="white"/>
<path d="M196.745 93.4395C196.78 92.1599 197.268 90.9343 198.121 89.9815C198.975 89.0288 200.139 88.411 201.406 88.2384C201.662 88.2043 201.727 88.6017 201.47 88.6358C200.291 88.7943 199.206 89.37 198.413 90.2588C197.62 91.1476 197.17 92.291 197.145 93.4828C197.139 93.7418 196.739 93.6969 196.745 93.4395Z" fill="white"/>
<path d="M186.439 97.3887C188.219 99.3045 190.655 100.478 193.261 100.675C193.519 100.695 193.475 101.095 193.218 101.076C190.506 100.865 187.974 99.6387 186.126 97.641C185.95 97.4505 186.264 97.1992 186.439 97.3887Z" fill="white"/>
<path d="M208.354 94.9729C208.238 95.4652 208.245 95.9788 208.376 96.4674C208.507 96.9561 208.757 97.4046 209.103 97.7727C209.282 97.9609 208.967 98.212 208.79 98.0251C208.409 97.6166 208.134 97.121 207.988 96.5814C207.842 96.0418 207.831 95.4746 207.955 94.9296C207.962 94.8772 207.989 94.8296 208.03 94.7965C208.071 94.7633 208.123 94.7471 208.176 94.7511C208.229 94.7571 208.277 94.7838 208.311 94.8253C208.344 94.8668 208.36 94.9199 208.354 94.9729Z" fill="white"/>
<path d="M18.662 228.567C18.1343 230.55 16.7475 232.201 15.0733 233.404C14.8003 233.6 14.52 233.783 14.2361 233.954C14.1488 234.005 14.0614 234.06 13.9704 234.107C13.8721 234.165 13.7739 234.22 13.6756 234.271H5.80289C5.66094 233.983 5.52263 233.692 5.38432 233.404C2.0103 226.304 -0.359162 218.643 0.0448473 210.84C0.205132 207.813 0.840147 204.831 1.92658 202.002C4.08858 196.363 8.03404 191.483 13.4609 189.027C13.5955 188.965 13.7375 188.903 13.8758 188.844C13.8321 189.001 13.7884 189.154 13.7448 189.311C13.1626 191.411 12.7511 193.555 12.5145 195.722C12.4927 195.89 12.4745 196.057 12.4599 196.228C11.9429 201.454 12.402 206.73 13.8139 211.787C13.8176 211.798 13.8212 211.813 13.8248 211.824C14.1342 212.943 14.4933 214.045 14.9022 215.129C15.2225 215.986 15.5683 216.832 15.9468 217.662C17.5264 221.15 19.6447 224.868 18.662 228.567Z" fill="#E6E6E6"/>
<path d="M13.974 189.009C13.8976 189.111 13.8211 189.209 13.7447 189.311C12.1461 191.432 10.7886 193.726 9.69733 196.148C9.6391 196.269 9.5845 196.389 9.53718 196.513C8.04198 199.896 7.08173 203.491 6.69092 207.17C6.68669 207.195 6.68426 207.221 6.68364 207.246C6.59265 208.106 6.53805 208.974 6.51621 209.841C6.43528 211.467 6.61093 213.096 7.03669 214.667C7.42491 215.95 8.10519 217.125 9.02398 218.1C9.11498 218.198 9.20597 218.297 9.30424 218.391C9.37704 218.468 9.45711 218.545 9.53354 218.617C10.2688 219.321 11.0731 219.973 11.7647 220.728C12.0817 221.066 12.3679 221.432 12.62 221.821C13.0224 222.473 13.2823 223.204 13.3827 223.964C13.4831 224.724 13.4216 225.496 13.2024 226.231C12.7074 228.075 11.5754 229.631 10.418 231.115C9.83928 231.858 9.24236 232.609 8.72552 233.404C8.53627 233.688 8.36156 233.976 8.20143 234.271H7.74282C7.89569 233.976 8.06312 233.688 8.2451 233.404C9.5736 231.308 11.4626 229.508 12.4417 227.201C13.1041 225.644 13.3043 223.88 12.4672 222.353C12.2218 221.909 11.925 221.496 11.5827 221.121C10.9167 220.367 10.1196 219.722 9.39526 219.04C9.21327 218.869 9.03492 218.694 8.86386 218.512C7.95691 217.589 7.25706 216.483 6.81105 215.268C6.30596 213.725 6.06718 212.106 6.10495 210.483C6.10495 209.448 6.15954 208.405 6.26146 207.37C6.27238 207.239 6.28694 207.104 6.30149 206.969C7.04583 200.456 9.51783 194.261 13.4608 189.027C13.5336 188.925 13.6101 188.826 13.6865 188.728C13.843 188.524 14.1305 188.808 13.974 189.009Z" fill="white"/>
<path d="M6.44829 207.405C5.1876 207.193 4.04323 206.539 3.21954 205.56C2.39586 204.581 1.9465 203.341 1.9517 202.061C1.9524 202.008 1.9733 201.959 2.01001 201.921C2.04671 201.884 2.09636 201.863 2.14848 201.862C2.20059 201.861 2.25112 201.88 2.28941 201.915C2.3277 201.951 2.35076 202 2.35373 202.052C2.34668 203.244 2.76538 204.399 3.53425 205.309C4.30313 206.219 5.37153 206.824 6.54664 207.014C6.80195 207.056 6.70215 207.446 6.44829 207.405Z" fill="white"/>
<path d="M8.92306 218.173C11.0649 216.674 12.5638 214.422 13.1208 211.865C13.1758 211.612 13.5655 211.711 13.5106 211.964C12.926 214.623 11.3614 216.964 9.12916 218.519C8.91629 218.667 8.71135 218.32 8.92306 218.173Z" fill="white"/>
<path d="M9.577 196.106C10.0477 196.29 10.5567 196.353 11.0581 196.292C11.5596 196.23 12.0379 196.044 12.45 195.752C12.6609 195.601 12.8656 195.948 12.6561 196.097C12.1992 196.418 11.6708 196.623 11.1169 196.692C10.563 196.762 10.0005 196.694 9.47865 196.496C9.42789 196.481 9.38457 196.448 9.3575 196.403C9.33043 196.357 9.32164 196.303 9.33292 196.252C9.3462 196.2 9.37929 196.156 9.42499 196.128C9.4707 196.101 9.52532 196.093 9.577 196.106Z" fill="white"/>
<path d="M41.279 203.102C41.1516 203.201 41.0206 203.299 40.8932 203.401C39.1652 204.725 37.5475 206.188 36.056 207.775C35.9395 207.895 35.8231 208.019 35.7102 208.143L35.7066 208.146C32.1703 211.991 29.3741 216.456 27.459 221.318L27.4481 221.351C27.4444 221.362 27.4408 221.369 27.4372 221.38C26.6781 223.326 26.0661 225.327 25.6064 227.365C25.1623 229.354 24.7984 231.487 24.1032 233.404C23.9976 233.699 23.8812 233.99 23.7574 234.271H7.5752C7.62979 233.983 7.68803 233.692 7.74626 233.404C8.56944 229.181 9.856 225.061 11.5825 221.121C11.6408 220.99 11.699 220.859 11.7645 220.728C12.6558 218.781 13.7039 216.91 14.8983 215.133L14.8986 215.132L14.8994 215.131L14.9006 215.13L14.902 215.13C15.5578 214.16 16.2624 213.225 17.013 212.327C18.9596 210.008 21.259 208.01 23.8266 206.408C23.8411 206.397 23.8593 206.39 23.8739 206.379C28.984 203.204 35.0405 201.692 40.8313 203H40.835C40.9842 203.033 41.1298 203.066 41.279 203.102Z" fill="#E6E6E6"/>
<path d="M41.2612 203.295C41.1375 203.328 41.0137 203.365 40.8936 203.401C38.3428 204.131 35.8806 205.142 33.5523 206.415C33.4358 206.477 33.3193 206.543 33.2029 206.608C29.9852 208.407 27.0645 210.692 24.544 213.384C24.542 213.386 24.5407 213.388 24.5403 213.391C24.5112 213.42 24.4785 213.453 24.453 213.482C23.8706 214.109 23.3101 214.761 22.7787 215.432C21.7392 216.682 20.9017 218.088 20.2964 219.598C19.8339 220.856 19.6707 222.205 19.8196 223.538C19.8305 223.673 19.8487 223.804 19.8669 223.939C19.8815 224.044 19.8961 224.15 19.9143 224.259C20.1545 225.721 20.5694 227.186 20.4529 228.677C20.3821 229.44 20.1505 230.18 19.7735 230.848C19.3965 231.516 18.8825 232.096 18.2655 232.551C17.846 232.876 17.3976 233.161 16.926 233.404C16.2518 233.752 15.5492 234.042 14.8259 234.271H13.3955C13.5884 234.216 13.7777 234.162 13.9706 234.107C14.6551 233.914 15.3273 233.679 15.9834 233.404C16.3581 233.247 16.7228 233.067 17.0753 232.864C18.5384 232.022 19.7578 230.732 20.0125 229.008C20.2345 227.499 19.8051 225.99 19.5503 224.514C19.5066 224.259 19.4666 224.008 19.4447 223.756C19.2709 222.478 19.3765 221.177 19.7541 219.944C20.2778 218.406 21.0607 216.968 22.069 215.694C22.6926 214.865 23.3584 214.068 24.0635 213.307C24.1509 213.209 24.2419 213.11 24.3365 213.012C26.91 210.301 29.8814 207.999 33.1483 206.186H33.1519C35.581 204.832 38.158 203.763 40.8317 203H40.8354C40.9555 202.964 41.0792 202.927 41.1993 202.895C41.4505 202.829 41.5087 203.226 41.2612 203.295Z" fill="white"/>
<path d="M24.1925 213.446C23.3134 212.516 22.7928 211.304 22.7237 210.026C22.6546 208.748 23.0415 207.487 23.8153 206.468C23.9726 206.262 24.2991 206.497 24.1416 206.703C23.4193 207.651 23.059 208.825 23.1258 210.015C23.1925 211.206 23.6819 212.333 24.5057 213.193C24.6845 213.38 24.3702 213.632 24.1925 213.446Z" fill="white"/>
<path d="M19.6933 223.535C22.3048 223.63 24.8559 222.735 26.8378 221.029C27.034 220.86 27.2858 221.174 27.0898 221.343C25.0241 223.114 22.3674 224.04 19.65 223.936C19.391 223.926 19.4357 223.525 19.6933 223.535Z" fill="white"/>
<path d="M33.4839 206.31C33.7493 206.741 34.1172 207.098 34.5548 207.351C34.9923 207.604 35.4858 207.745 35.9908 207.759C36.2498 207.766 36.2048 208.166 35.9475 208.16C35.3896 208.141 34.8449 207.985 34.3608 207.707C33.8768 207.428 33.4682 207.035 33.1707 206.562C33.139 206.52 33.1244 206.467 33.1301 206.415C33.1358 206.362 33.1613 206.314 33.2013 206.279C33.243 206.246 33.296 206.231 33.3489 206.237C33.4018 206.242 33.4504 206.269 33.4839 206.31Z" fill="white"/>
<path d="M166.111 63.0992C165.737 63.5912 165.26 63.9952 164.714 64.2828C164.168 64.5703 163.565 64.7344 162.948 64.7636C162.332 64.7927 161.717 64.6861 161.146 64.4512C160.575 64.2164 160.062 63.8591 159.644 63.4045L145.886 69.3962L147.226 61.7055L160.086 57.1947C160.895 56.542 161.915 56.2092 162.953 56.2594C163.991 56.3096 164.974 56.7394 165.717 57.4672C166.46 58.195 166.91 59.1703 166.983 60.2083C167.055 61.2463 166.745 62.2749 166.111 63.0992Z" fill="#FFB8B8"/>
<path d="M156.929 65.5005L124.974 79.754L124.905 79.7294L88.4834 66.7331C85.7704 65.3133 83.7021 62.9088 82.7019 60.0119C81.7017 57.1149 81.8453 53.9447 83.1032 51.1503C83.8005 49.6063 84.8164 48.2278 86.0841 47.1053C87.3518 45.9829 88.8425 45.142 90.4582 44.6381C92.0738 44.1341 93.7777 43.9785 95.4577 44.1815C97.1377 44.3845 98.7557 44.9415 100.205 45.8158L127.31 62.1652L153.593 58.7543L156.929 65.5005Z" fill="#E6E6E6"/>
<path d="M314 234.566C314 234.623 313.989 234.68 313.967 234.732C313.946 234.785 313.914 234.833 313.874 234.873C313.833 234.914 313.786 234.946 313.733 234.967C313.68 234.989 313.624 235 313.567 235H0.445329C0.330457 235 0.220293 234.954 0.139066 234.873C0.0578393 234.792 0.012207 234.681 0.012207 234.566C0.012207 234.451 0.0578393 234.341 0.139066 234.26C0.220293 234.178 0.330457 234.133 0.445329 234.133H313.567C313.624 234.132 313.68 234.144 313.733 234.165C313.786 234.187 313.833 234.219 313.874 234.259C313.914 234.3 313.946 234.347 313.967 234.4C313.989 234.453 314 234.509 314 234.566Z" fill="#CCCCCC"/>
<path d="M114.048 108.171L81.8347 103.011C80.9899 102.74 80.2135 102.29 79.5591 101.69C78.9046 101.09 78.3876 100.356 78.0433 99.537C77.6991 98.7183 77.5358 97.8347 77.5648 96.9468C77.5938 96.0589 77.8143 95.1879 78.2112 94.3934L79.672 91.4674L79.1046 60.7262C79.0362 56.7275 80.0207 52.7813 81.959 49.2846C83.8973 45.7878 86.721 42.8639 90.1462 40.807L93.2876 38.9261L94.8752 34.8891L109.514 35.2466L109.557 40.5413L114.799 48.9124L114.799 48.9471L114.47 94.5098L113.025 99.2119L115.21 104.681L114.048 108.171Z" fill="#E6E6E6"/>
<path d="M103.535 29.8692C110.881 29.8692 116.836 23.9061 116.836 16.5502C116.836 9.19436 110.881 3.23126 103.535 3.23126C96.1895 3.23126 90.2344 9.19436 90.2344 16.5502C90.2344 23.9061 96.1895 29.8692 103.535 29.8692Z" fill="#FFB8B8"/>
<path d="M89.6845 19.4537C89.2878 17.7801 89.47 15.4251 89.6941 13.74C90.2819 9.32228 92.732 5.12242 96.4543 2.6347C97.1601 2.09791 97.9988 1.76416 98.88 1.66944C99.7606 1.63263 100.715 2.10467 100.985 2.94469C101.207 2.39027 101.54 1.88726 101.964 1.46671C102.387 1.04616 102.892 0.716985 103.448 0.49951C104.564 0.071397 105.764 -0.0905052 106.953 0.026637C109.258 0.216901 111.469 1.02853 113.351 2.37539C115.232 3.72224 116.715 5.55408 117.641 7.6765C117.996 8.52162 118.988 5.4 119.438 6.19851C119.852 7.02852 120.574 7.66343 121.449 7.9674C122.331 8.21384 122.689 11.8527 123.036 11.0042C123.306 11.6312 123.412 12.3164 123.346 12.9957C123.279 13.6751 123.042 14.3266 122.657 14.8896C122.271 15.4525 121.75 15.9087 121.141 16.2155C120.532 16.5223 119.855 16.6698 119.174 16.6443C118.277 16.6107 117.418 16.28 116.531 16.1377C113.359 15.6288 109.994 17.932 109.316 21.0764C109.073 20.1671 108.685 19.303 108.167 18.5175C107.905 18.1268 107.552 17.8047 107.14 17.5778C106.728 17.3509 106.267 17.2259 105.797 17.2132C104.894 17.247 104.101 17.8379 103.516 18.5264C102.93 19.2148 102.49 20.0181 101.9 20.7029C100.169 22.7121 97.8283 27.3979 95.3617 27.0562C93.4151 26.7865 90.2262 21.7387 89.6845 19.4537Z" fill="#2F2E41"/>
<path d="M183.938 78.1919C184.032 77.5847 183.907 76.9641 183.587 76.4401C183.266 75.9162 182.771 75.5227 182.189 75.3295L146.369 63.3835C146.026 63.2685 145.662 63.2267 145.302 63.2608L136.324 64.1109L131.172 64.6002L121.666 65.4999C121.092 65.5548 120.552 65.799 120.132 66.1941C119.711 66.5892 119.433 67.1128 119.342 67.6829L114.515 97.874C114.424 98.4629 114.536 99.0654 114.833 99.582C115.129 100.099 115.593 100.498 116.148 100.715L152.341 114.705C152.511 114.771 152.687 114.819 152.868 114.847C153.13 114.889 153.397 114.891 153.659 114.853L177.047 111.382C177.598 111.302 178.109 111.046 178.504 110.652C178.899 110.258 179.157 109.747 179.239 109.195L183.938 78.1919Z" fill="white"/>
<path d="M116.968 98.5881L153.161 112.577C153.214 112.598 153.272 112.605 153.328 112.597L176.712 109.126C176.781 109.117 176.846 109.085 176.895 109.035C176.945 108.986 176.977 108.922 176.987 108.852L181.689 77.8486C181.7 77.7728 181.684 77.6958 181.644 77.6305C181.604 77.5653 181.543 77.5159 181.471 77.4908L181.23 77.4092L145.649 65.5475C145.633 65.5417 145.616 65.5377 145.599 65.5354C145.571 65.5303 145.543 65.5289 145.515 65.5311L123.617 67.606L121.88 67.7693C121.808 67.7769 121.741 67.8076 121.689 67.8568C121.637 67.9061 121.602 67.971 121.59 68.0418L116.764 98.2318C116.753 98.3055 116.766 98.3811 116.803 98.4459C116.84 98.5108 116.899 98.561 116.968 98.5881Z" fill="#EA638C"/>
<path d="M123.617 67.606L145.515 65.5311C145.543 65.5289 145.571 65.5303 145.599 65.5354C145.616 65.5377 145.633 65.5417 145.649 65.5475L181.23 77.4092L171.844 78.4041L168.332 78.7746L158.337 79.832C158.308 79.8335 158.279 79.8331 158.249 79.831C158.232 79.8256 158.214 79.8202 158.193 79.8145L123.617 67.606Z" fill="#2F2E41"/>
<path d="M116.147 100.717L152.34 114.706C152.511 114.772 152.688 114.818 152.868 114.845C153.13 114.888 153.398 114.891 153.661 114.854L177.045 111.384C177.597 111.304 178.108 111.047 178.503 110.653C178.898 110.259 179.156 109.748 179.239 109.196L183.938 78.1919C184.007 77.7348 183.955 77.2674 183.786 76.8373C183.762 76.7801 183.738 76.7229 183.71 76.669C183.524 76.2762 183.24 75.9378 182.886 75.6858C182.673 75.5326 182.438 75.4126 182.189 75.3299L182.147 75.3148L146.371 63.3832C146.225 63.3365 146.076 63.3002 145.924 63.2746C145.718 63.2453 145.508 63.2412 145.3 63.2625L136.324 64.1097L131.173 64.6018L121.665 65.5007C121.276 65.5371 120.9 65.6614 120.566 65.8642C120.54 65.8767 120.515 65.8915 120.492 65.9084C120.476 65.9192 120.46 65.9312 120.445 65.9442C120.153 66.1436 119.905 66.4003 119.716 66.6988C119.526 66.9973 119.4 67.3313 119.343 67.6804L114.513 97.8737C114.422 98.463 114.534 99.0659 114.831 99.5829C115.128 100.1 115.592 100.5 116.147 100.717ZM119.984 67.7856C120.043 67.4237 120.203 67.0861 120.446 66.812C120.52 66.7239 120.602 66.6434 120.692 66.5719C120.938 66.3731 121.228 66.2375 121.538 66.1769C121.599 66.1642 121.661 66.1555 121.723 66.1507L137.732 64.6363L145.363 63.9092C145.415 63.9031 145.462 63.904 145.51 63.9013C145.626 63.8989 145.741 63.9075 145.855 63.9269C145.96 63.9406 146.063 63.9651 146.162 64.0003L181.98 75.9469C182.009 75.957 182.033 75.9666 182.061 75.9767C182.387 76.098 182.673 76.3065 182.889 76.5794C183.059 76.7883 183.184 77.0309 183.254 77.2912C183.324 77.5516 183.339 77.8238 183.297 78.0902L178.594 109.097C178.532 109.511 178.339 109.894 178.044 110.189C177.749 110.485 177.366 110.677 176.953 110.738L153.565 114.208C153.231 114.256 152.889 114.217 152.574 114.095L116.38 100.11C115.966 99.9462 115.619 99.6461 115.396 99.259C115.174 98.8719 115.09 98.4206 115.158 97.9792L119.984 67.7856Z" fill="#3F3D56"/>
<path d="M120.367 66.1088C120.386 66.0539 120.42 66.0052 120.465 65.968C120.479 65.9562 120.495 65.9454 120.512 65.9359C120.527 65.93 120.542 65.9205 120.557 65.9147C120.63 65.8854 120.711 65.884 120.785 65.9108L121.538 66.1769L158.341 79.177L166.955 78.2657L171.775 77.7567L181.977 76.6752L182.889 76.5794L183.066 76.5598C183.143 76.5528 183.219 76.5727 183.282 76.6162C183.346 76.6597 183.392 76.724 183.413 76.7979C183.418 76.815 183.421 76.8324 183.422 76.8501C183.43 76.9203 183.414 76.991 183.378 77.0516C183.342 77.1122 183.287 77.1594 183.222 77.1861C183.193 77.1981 183.163 77.2063 183.132 77.2104L181.891 77.3407L171.845 78.4041L168.332 78.7746L158.337 79.832C158.308 79.8335 158.279 79.8331 158.25 79.8309C158.232 79.8256 158.214 79.8202 158.193 79.8145L120.692 66.5719L120.565 66.5268C120.536 66.5172 120.509 66.5022 120.485 66.4825C120.428 66.4409 120.386 66.3822 120.365 66.315C120.344 66.2478 120.345 66.1756 120.367 66.1088Z" fill="#3F3D56"/>
<path d="M152.967 114.939C152.882 114.926 152.806 114.879 152.756 114.81C152.705 114.741 152.684 114.654 152.697 114.569L157.98 79.4592C157.993 79.3737 158.039 79.2969 158.109 79.2456C158.178 79.1943 158.265 79.1728 158.35 79.1856L158.353 79.1861C158.438 79.1996 158.514 79.2462 158.565 79.3155C158.615 79.3848 158.636 79.4714 158.624 79.5563L153.34 114.666C153.327 114.752 153.281 114.829 153.211 114.88C153.142 114.931 153.055 114.953 152.97 114.94L152.967 114.939Z" fill="#3F3D56"/>
<path d="M166.36 112.712L162.846 113.084L166.956 78.2648C166.956 78.2648 171.649 77.4139 171.775 77.7551C171.852 77.9588 166.393 112.489 166.36 112.712Z" fill="#3F3D56"/>
<path d="M120.566 66.5264L120.471 82.4049L148.543 93.1157L158.624 79.5562L120.566 66.5264Z" fill="#3F3D56"/>
<path d="M182.89 76.5799C182.655 76.2846 182.339 76.0645 181.981 75.947L146.164 64.0008C146.063 63.9669 145.96 63.9417 145.855 63.9254C145.741 63.9058 145.625 63.8971 145.509 63.8995L145.567 63.536L145.926 63.2761L154.431 57.1098L182.836 65.8267L182.885 75.6859L182.89 76.5799Z" fill="#3F3D56"/>
<path d="M121.996 92.0167C122.037 92.0206 122.077 92.029 122.115 92.0416L133.105 95.6559C133.242 95.7011 133.356 95.7993 133.422 95.9286C133.487 96.058 133.498 96.2081 133.453 96.3459C133.408 96.4837 133.31 96.5978 133.181 96.6633C133.052 96.7287 132.902 96.7401 132.764 96.6949L121.775 93.0806C121.647 93.0386 121.539 92.951 121.472 92.8346C121.405 92.7181 121.383 92.581 121.41 92.4493C121.438 92.3177 121.513 92.2008 121.621 92.121C121.729 92.0412 121.863 92.004 121.996 92.0167Z" fill="white"/>
<path d="M166.336 158.627C168.749 158.627 170.704 156.669 170.704 154.253C170.704 151.838 168.749 149.88 166.336 149.88C163.924 149.88 161.969 151.838 161.969 154.253C161.969 156.669 163.924 158.627 166.336 158.627Z" fill="#F2F2F2"/>
<path d="M54.9609 174.663C57.3731 174.663 59.3286 172.705 59.3286 170.29C59.3286 167.874 57.3731 165.916 54.9609 165.916C52.5487 165.916 50.5933 167.874 50.5933 170.29C50.5933 172.705 52.5487 174.663 54.9609 174.663Z" fill="#F2F2F2"/>
<path d="M145.954 29.9719C148.366 29.9719 150.322 28.0138 150.322 25.5983C150.322 23.1829 148.366 21.2248 145.954 21.2248C143.542 21.2248 141.586 23.1829 141.586 25.5983C141.586 28.0138 143.542 29.9719 145.954 29.9719Z" fill="#F2F2F2"/>
<path d="M153.12 98.449C152.554 98.6953 151.941 98.8143 151.324 98.7976C150.707 98.7809 150.101 98.629 149.549 98.3525C148.997 98.076 148.513 97.6817 148.129 97.1973C147.746 96.7129 147.473 96.1502 147.331 95.5489L132.403 94.0388L137.328 87.9865L150.748 90.3484C151.773 90.1753 152.825 90.3846 153.706 90.9367C154.587 91.4887 155.235 92.3451 155.527 93.3436C155.82 94.3421 155.736 95.4133 155.293 96.3543C154.849 97.2953 154.076 98.0406 153.12 98.449Z" fill="#FFB8B8"/>
<path d="M143.939 96.048L109.104 92.8341L109.056 92.7791L83.6323 63.6088C81.9591 61.042 81.3292 57.9318 81.8714 54.9151C82.4136 51.8984 84.087 49.2033 86.5489 47.3817C87.911 46.3764 89.4704 45.6713 91.1243 45.3129C92.7782 44.9546 94.4892 44.951 96.1446 45.3025C97.8 45.654 99.3622 46.3526 100.729 47.3523C102.095 48.352 103.234 49.6301 104.072 51.1025L119.731 78.6356L144.323 88.5296L143.939 96.048Z" fill="#E6E6E6"/>
<path d="M231.373 39.9511C230.508 33.5971 229.423 26.7752 224.948 22.1884C223.528 20.733 221.828 19.5806 219.951 18.8008C218.074 18.0209 216.059 17.6298 214.027 17.6508C211.995 17.6719 209.989 18.1047 208.128 18.9233C206.268 19.7419 204.592 20.9292 203.203 22.4138C199.945 25.8939 198.506 30.7806 198.374 35.5489C198.243 40.3172 199.303 45.0325 200.48 49.6549C206.706 49.7794 212.886 48.5613 218.6 46.0834C220.029 45.4623 221.435 44.7602 222.945 44.3754C224.455 43.9906 225.531 44.9588 226.935 45.634L227.706 44.1559C228.337 45.3319 230.291 44.9833 231 43.8526C231.709 42.7219 231.553 41.2739 231.373 39.9511Z" fill="#2F2E41"/>
<path d="M206.694 75.4165L181.261 75.9611C180.87 75.2851 180.292 74.7372 179.596 74.3843C178.9 74.0314 178.117 73.8886 177.342 73.9733C176.566 74.058 175.832 74.3665 175.229 74.8613C174.625 75.3561 174.179 76.0159 173.943 76.7604C173.707 77.5048 173.692 78.3019 173.901 79.0545C174.109 79.8072 174.531 80.483 175.116 80.9997C175.701 81.5164 176.423 81.8517 177.195 81.9649C177.967 82.0781 178.755 81.9642 179.463 81.6372C182.836 81.8292 209.226 85.5797 210.8 83.1626C212.398 80.7094 220.927 72.0516 220.927 72.0516L214.371 62.7054L206.694 75.4165Z" fill="#9E616A"/>
<path d="M212.891 46.2376C219.491 46.2376 224.84 40.8805 224.84 34.2723C224.84 27.664 219.491 22.3069 212.891 22.3069C206.292 22.3069 200.942 27.664 200.942 34.2723C200.942 40.8805 206.292 46.2376 212.891 46.2376Z" fill="#9E616A"/>
<path d="M232.03 57.2948C230.622 54.4885 229.937 51.0217 226.935 50.1119C224.908 49.4975 216.709 50.4182 214.861 51.4553C211.788 53.1803 214.573 56.4128 212.76 59.4377C210.789 62.7262 205.432 69.3255 203.461 72.6139C202.106 74.8746 206.671 81.5103 205.938 84.0427C205.205 86.5752 205.17 89.4176 206.418 91.7392C207.535 93.8171 205.919 95.6553 207.043 97.7298C208.211 99.8873 209.644 107.954 208.557 110.154L207.829 112.34C215.053 112.765 221.127 104.124 228.306 103.214C230.089 102.987 231.94 102.692 233.409 101.656C235.574 100.129 236.429 97.3589 236.964 94.7627C239.538 82.0718 237.801 68.8838 232.03 57.2948Z" fill="#3F3D56"/>
<path d="M242.86 86.9262C241.854 84.1761 240.033 72.1521 240.033 72.1521L228.632 71.8174L234.206 85.5838L218.995 106.906C218.995 106.906 219.023 106.953 219.074 107.036C218.275 106.908 217.455 107.024 216.722 107.37C215.99 107.716 215.378 108.275 214.968 108.974C214.558 109.674 214.368 110.481 214.424 111.29C214.48 112.099 214.778 112.872 215.28 113.509C215.781 114.146 216.463 114.616 217.236 114.858C218.009 115.1 218.837 115.103 219.612 114.866C220.387 114.629 221.072 114.163 221.578 113.53C222.084 112.897 222.387 112.126 222.448 111.317C222.504 111.349 222.57 111.361 222.633 111.35C222.697 111.339 222.755 111.306 222.797 111.257C224.49 109.13 243.867 89.6763 242.86 86.9262Z" fill="#9E616A"/>
<path d="M244.019 79.3326C242.973 74.9099 241.919 70.4632 240.154 66.2755C238.39 62.0878 235.864 58.1324 232.312 55.3032C231.176 54.3987 229.906 53.6003 228.483 53.3191C227.059 53.0379 225.455 53.3526 224.455 54.4057C222.855 56.0908 223.336 58.7957 223.923 61.0454C225.653 67.6788 227.384 74.3121 229.114 80.9455C234.111 80.4151 239.108 79.8847 244.105 79.3543L244.019 79.3326Z" fill="#3F3D56"/>
<path d="M227.533 35.9319C227.093 33.0373 226.633 30.1186 225.6 27.3931C224.566 24.6676 222.899 22.1148 220.509 20.5708C216.724 18.1263 211.824 18.5978 207.58 20.0039C204.299 21.0913 201.095 22.7441 198.781 25.4013C196.467 28.0585 195.167 31.85 196.028 35.3244C200.554 34.2535 205.081 33.1826 209.607 32.1117L209.112 32.4623C210.598 33.2044 211.896 34.2758 212.907 35.5952C213.918 36.9146 214.615 38.4473 214.947 40.0769C215.27 41.7264 215.224 43.4272 214.81 45.0565C214.397 46.6857 213.627 48.2026 212.557 49.4974C215.644 48.4008 218.731 47.3043 221.818 46.2077C223.724 45.5308 225.763 44.7509 226.893 43.0148C228.203 41.002 227.899 38.334 227.533 35.9319Z" fill="#2F2E41"/>
</g>
<defs>
<clipPath id="clip0_54_524">
<rect width="314" height="235" fill="white"/>
</clipPath>
</defs>
</svg>
